<svg id="Layer_1" data-name="Layer 1" xmlns="http://www.w3.org/2000/svg" viewBox="0 0 1174 325"><defs><style>.cls-1{font-size:288.58px;fill:#fff;font-family:Poppins-Bold, Poppins;font-weight:700;}.cls-2{font-size:139.48px;fill:#bec0c2;font-family:Poppins-Medium, Poppins;font-weight:500;}.cls-3{fill:#737475;}</style></defs><text class="cls-1" transform="translate(317.41 206.75)">PAWS</text><text class="cls-2" transform="translate(325.19 323.87)">PET SUPPLIES</text><g id="layer1"><path id="path1575" class="cls-3" d="M122.81,6.73c-.56.32-1.12.68-1.67,1-20.62,16.72-19.66,47.89-9.56,70.2,8.16,20.8,30.57,40.86,54.21,33.32a24,24,0,0,0,9-5.69c20.74-22.87,15.23-59.52-2.48-82.5C162.17,7.52,140.12-3.25,122.81,6.73ZM26.61,62c-14,8.3-17,28.89-11.67,43.68,10.27,29.47,41.12,56,73.8,48.8a25.05,25.05,0,0,0,8.08-4.25c17.12-13.72,13.27-39.36,2.91-56C86.55,72,60.24,52.44,33.28,59.21A25.47,25.47,0,0,0,26.61,62ZM227.88,49.29C204.15,64.51,201,98.44,211.44,122.66c6,18.32,27.15,35.47,46.72,26.24,26.06-15,28.27-53.1,15.49-77.65C266.38,54.35,246.12,40.24,227.88,49.29ZM16,175.07c-10.5,5.76-17.27,17.77-14.74,30.3,6.8,33.51,45.23,59.25,78.67,48.37,13.76-4.88,19.39-20.7,16-34.05-7.3-28.51-37-49.74-66.23-48.17A28.55,28.55,0,0,0,16,175.07Zm138.61-10.7c-20.46,11.51-35.44,33.55-40,56.45-4.23,26.06-4.21,53.61,3.94,78.94,3.59,19.5,26.79,31.28,44.37,21.59,21.39-11.22,31.39-35.82,51.74-48.62,16.26-12.66,37.34-12.33,56.72-15.22,16.86-1.8,34.41-14.56,33.16-33.09-2.89-18-19.85-29.39-33.93-38.91-25.63-13.91-52.85-28.37-82.65-29.33A62,62,0,0,0,154.6,164.37Z"/></g></svg>