<?xml version="1.0" standalone="no"?>
<!DOCTYPE svg PUBLIC "-//W3C//DTD SVG 20010904//EN"
 "http://www.w3.org/TR/2001/REC-SVG-20010904/DTD/svg10.dtd">
<svg version="1.0" xmlns="http://www.w3.org/2000/svg"
 width="500.000000pt" height="500.000000pt" viewBox="0 0 500.000000 500.000000"
 preserveAspectRatio="xMidYMid meet">
<metadata>
Created by potrace 1.11, written by Peter Selinger 2001-2013
</metadata>
<g transform="translate(0.000000,500.000000) scale(0.100000,-0.100000)"
fill="#000000" stroke="none">
<path d="M2156 4940 c-121 -38 -217 -131 -290 -280 -58 -120 -70 -184 -71
-355 0 -168 5 -207 41 -332 119 -413 412 -695 723 -696 128 0 206 25 292 95
31 25 110 142 140 206 51 111 72 212 73 352 1 69 -3 151 -7 183 -16 114 -64
254 -135 394 -23 46 -130 194 -175 242 -86 92 -207 164 -332 196 -77 20 -185
17 -259 -5z"/>
<path d="M3784 4284 c-83 -16 -108 -28 -174 -82 -129 -107 -225 -277 -255
-452 -3 -19 -8 -48 -11 -64 -7 -44 -7 -215 0 -266 27 -186 100 -383 180 -485
56 -72 70 -87 126 -130 181 -139 390 -158 542 -48 62 45 145 137 186 206 30
50 76 166 88 221 18 82 24 145 24 241 0 102 -3 137 -15 191 -3 12 -7 38 -11
60 -9 59 -51 170 -102 269 -74 145 -232 287 -359 325 -68 20 -157 26 -219 14z"/>
<path d="M708 4100 c-164 -43 -271 -160 -313 -342 -18 -78 -20 -201 -6 -273
38 -190 172 -417 339 -577 192 -184 398 -277 627 -284 174 -5 261 24 359 121
91 91 134 212 134 373 -1 234 -114 477 -318 682 -122 123 -200 180 -325 240
-151 72 -356 97 -497 60z"/>
<path d="M2968 2615 c-2 -1 -30 -5 -63 -8 -240 -24 -517 -188 -695 -412 -139
-175 -252 -423 -275 -604 -4 -30 -8 -61 -10 -70 -29 -152 -35 -535 -10 -701 2
-14 7 -50 10 -80 14 -119 84 -379 122 -454 31 -61 121 -152 188 -190 98 -56
248 -77 350 -51 131 34 311 176 475 375 212 256 335 370 511 472 45 27 139 67
169 73 8 2 40 10 70 18 30 9 91 21 135 28 44 6 88 13 97 14 9 2 48 6 85 10 37
3 77 8 88 10 11 2 47 7 79 11 64 6 67 7 138 23 143 33 294 139 362 255 32 54
56 144 56 208 0 57 -35 157 -81 234 -63 103 -239 262 -421 378 -76 48 -441
234 -548 278 -239 100 -438 156 -615 174 -72 7 -213 13 -217 9z"/>
<path d="M506 2356 c-206 -70 -342 -289 -301 -486 2 -14 7 -34 9 -45 41 -197
217 -440 416 -572 167 -111 323 -163 505 -168 199 -5 325 33 413 123 169 174
163 439 -15 709 -125 188 -313 333 -531 409 -172 59 -372 72 -496 30z"/>
</g>
</svg>
